<svg width="600" height="536" viewBox="0 0 600 536" fill="none" xmlns="http://www.w3.org/2000/svg">
<path opacity="0.4" d="M112.509 166.783C123.316 143.676 116.654 116.866 126.425 93.4635C132.642 74.2079 148.779 60.1366 166.543 50.5088C186.973 40.7329 211.399 40.1405 233.457 44.7322C246.78 46.954 260.104 53.4712 273.575 49.1757C286.01 45.769 296.225 37.4743 308.66 34.2157C318.727 31.2533 329.386 30.5127 339.896 31.9939C354.996 32.8826 369.504 37.03 382.383 44.8803C401.036 56.2855 415.544 72.5786 428.423 89.6124C434.641 98.2033 439.378 107.387 446.632 115.089C454.922 124.569 466.025 131.234 477.72 135.826C486.158 138.936 495.189 140.862 502.739 146.046C541.969 172.263 554.256 224.845 547.446 268.393C542.561 294.313 535.603 312.236 551.887 336.824C562.694 351.784 576.906 365.707 579.719 384.518C588.305 438.582 544.93 489.239 495.929 508.642C495.633 508.939 495.189 508.79 494.893 508.79C494.449 508.79 494.004 508.494 493.56 508.198C493.264 508.198 492.82 508.05 492.524 508.05C487.343 507.309 482.457 506.42 477.128 505.68C409.622 495.46 340.933 491.164 272.835 487.313C202.369 483.906 131.606 480.351 60.9919 481.092C59.8076 481.388 58.4752 481.388 57.2909 480.944C57.2909 481.092 57.1429 481.092 56.9948 481.24C53.1458 483.314 48.8527 471.316 46.6321 467.909C38.9341 453.542 33.4567 438.286 28.4234 422.881C22.3538 400.367 16.4323 377.557 15.396 354.45C13.7676 316.087 19.245 275.502 41.0067 242.916C59.3634 212.996 99.1858 200.998 112.509 166.783Z" fill="#F1CB57"/>
<path d="M103.331 186.927C111.769 162.783 102.443 136.863 109.845 112.571C114.138 92.7229 128.793 77.1704 145.374 65.7652C164.767 53.9156 188.897 50.9532 211.399 53.3231C224.87 54.2119 238.786 59.396 251.813 53.7675C263.805 49.1758 273.131 39.8443 285.27 35.4007C295.041 31.4015 305.551 29.624 316.062 30.0684C331.162 29.4759 345.966 32.1421 359.586 38.6593C379.275 48.139 395.411 62.8028 409.919 78.5035C417.024 86.3538 422.65 95.0928 430.644 102.054C439.822 110.645 451.517 116.126 463.657 119.533C472.391 121.754 481.569 122.791 489.563 127.235C531.162 149.305 548.779 200.406 546.262 244.397C544.041 270.614 538.86 289.277 557.513 312.088C569.8 325.863 585.344 338.305 589.933 356.82C603.849 409.699 565.803 464.503 519.023 488.794C518.727 489.091 518.283 489.091 517.987 489.091C517.543 489.091 517.098 488.942 516.654 488.646C516.358 488.646 515.914 488.646 515.618 488.646C510.437 488.498 505.403 488.054 500.074 487.906C431.828 484.499 363.138 487.165 294.893 490.127C224.426 493.83 153.664 497.385 83.4937 505.236C82.3094 505.68 80.9771 505.828 79.7928 505.532C79.7928 505.68 79.6447 505.68 79.4967 505.828C75.9438 508.346 70.4663 496.793 67.8016 493.682C58.7713 480.203 51.6654 465.54 45.1518 450.728C36.8616 428.954 28.7195 406.884 25.3146 383.926C19.8372 345.859 21.1695 304.978 39.5263 270.318C55.0703 238.324 93.5603 222.327 103.331 186.927Z" fill="#F1CB57"/>
<path d="M402.369 145.305L401.036 159.821L393.19 174.485L376.462 187.667L351.295 191.815L332.05 189.593L316.654 180.262L294.893 165.005L286.751 150.489L283.642 140.417L286.454 133.9L300.074 112.423L314.286 99.2402L345.818 69.7644L381.347 66.0614L391.118 79.5403L394.375 94.7966L395.411 107.09V114.645L397.039 123.236L400.888 127.383L402.369 135.974V145.305Z" fill="white"/>
<path d="M386.38 241.435C386.38 241.435 460.992 256.395 485.714 264.986C510.289 273.577 517.098 322.16 472.243 324.382C427.387 326.604 358.993 312.68 358.993 312.68L386.38 241.435Z" fill="white"/>
<path d="M358.697 313.717L357.513 313.421L385.64 240.25L386.529 240.398C387.269 240.546 461.584 255.506 486.01 263.949C499.038 268.392 507.92 284.389 505.7 299.646C503.479 314.902 491.044 324.53 472.243 325.418C468.986 325.567 465.581 325.715 462.028 325.715C418.061 325.567 359.437 313.865 358.697 313.717ZM360.326 311.94C369.652 313.717 431.236 325.418 472.243 323.345C490.304 322.456 501.702 313.717 503.775 299.349C505.848 285.13 497.557 270.17 485.418 266.023C462.472 258.172 395.411 244.397 387.121 242.768L360.326 311.94Z" fill="black"/>
<path d="M536.047 109.016C554.404 107.979 561.066 122.939 552.628 128.42C544.19 133.9 539.6 137.455 529.978 143.824C520.355 150.341 515.47 139.529 524.5 132.271C533.531 125.013 539.6 118.496 539.6 118.496" fill="white"/>
<path d="M524.648 146.786C526.277 146.786 528.349 146.194 530.57 144.565C534.863 141.75 538.12 139.38 541.229 137.307C544.93 134.641 548.483 132.271 553.22 129.16C556.773 126.79 558.105 122.643 556.773 118.496C554.848 112.719 547.742 107.239 536.047 107.831L536.195 109.905C546.706 109.312 553.22 114.052 554.848 119.088C556.033 122.495 554.996 125.605 552.184 127.383C547.594 130.493 544.042 132.863 540.192 135.529C537.084 137.603 533.827 139.973 529.534 142.787C526.129 145.009 523.168 145.157 521.688 143.232C519.911 140.862 520.799 136.418 525.241 132.863C534.271 125.605 540.341 119.088 540.341 119.088L538.86 117.755C538.86 117.755 532.791 124.272 523.908 131.382C518.283 135.826 517.691 141.602 519.911 144.565C520.799 145.898 522.428 146.786 524.648 146.786Z" fill="black"/>
<path d="M529.534 100.129C547.891 99.0919 554.552 114.052 546.114 119.532C537.676 125.161 533.087 128.568 523.464 134.937C513.842 141.454 508.956 130.641 517.987 123.383C527.017 116.126 533.087 109.608 533.087 109.608" fill="white"/>
<path d="M518.135 137.899C519.763 137.899 521.836 137.307 524.056 135.677C528.349 132.863 531.606 130.493 534.715 128.42C538.416 125.753 541.969 123.383 546.706 120.273C550.259 117.903 551.591 113.756 550.259 109.608C548.335 103.832 541.229 98.2032 529.534 98.9438L529.682 101.017C540.192 100.425 546.706 105.165 548.335 110.201C549.519 113.608 548.483 116.718 545.67 118.496C541.081 121.606 537.528 123.976 533.679 126.642C530.57 128.716 527.313 131.086 523.02 133.9C519.615 136.122 516.654 136.27 515.174 134.344C513.397 131.974 514.286 127.531 518.727 123.976C527.757 116.718 533.827 110.201 533.827 110.201L532.346 108.868C532.346 108.868 526.277 115.385 517.395 122.495C511.769 126.938 511.177 132.715 513.397 135.677C514.434 137.01 516.062 137.899 518.135 137.899Z" fill="black"/>
<path d="M526.721 89.4643C545.078 88.4274 551.74 103.387 543.301 108.868C534.863 114.496 530.274 117.903 520.651 124.272C511.029 130.79 506.144 119.977 515.174 112.719C524.204 105.461 530.274 98.9439 530.274 98.9439" fill="white"/>
<path d="M515.174 127.235C516.802 127.235 518.875 126.642 521.096 125.013C525.389 122.199 528.645 119.829 531.754 117.755C535.455 115.089 539.008 112.719 543.745 109.608C547.298 107.239 548.631 103.091 547.298 98.9439C545.374 93.1672 538.268 87.6868 526.573 88.2793L526.721 90.353C537.232 89.7605 543.745 94.5003 545.374 99.5364C546.558 102.943 545.522 106.054 542.709 107.831C538.12 110.942 534.567 113.311 530.718 115.978C527.609 118.051 524.352 120.421 520.059 123.235C516.654 125.457 513.694 125.605 512.213 123.68C510.437 121.31 511.325 116.866 515.766 113.311C524.796 106.054 530.866 99.5364 530.866 99.5364L529.386 98.2033C529.386 98.2033 523.316 104.721 514.434 111.83C508.808 116.274 508.216 122.051 510.437 125.013C511.473 126.346 513.101 127.235 515.174 127.235Z" fill="black"/>
<path d="M498.15 86.5018C527.017 76.874 554.404 64.8763 566.247 61.1733C566.247 61.1733 572.761 74.356 556.625 80.2808C540.489 86.2055 511.917 98.3513 511.917 98.3513" fill="white"/>
<path d="M512.213 99.2401C512.509 99.0919 540.933 87.0943 556.921 81.1695C562.398 79.0958 565.951 76.1334 567.58 72.1342C569.8 66.3575 567.284 60.8771 567.136 60.729L566.691 59.9884L565.803 60.2846C560.77 61.914 553.22 64.8763 543.449 68.5793C530.422 73.6154 514.434 79.9845 497.705 85.6131L498.298 87.5386C515.026 81.9101 531.162 75.5409 544.19 70.5049C553.22 66.95 560.474 64.1357 565.507 62.5064C566.099 64.1357 566.987 67.8387 565.507 71.5417C564.175 74.9485 560.918 77.6146 556.033 79.3921C540.044 85.3168 511.473 97.3145 511.177 97.4626L512.213 99.2401Z" fill="black"/>
<path d="M499.63 144.12C499.63 144.12 499.038 224.845 508.66 282.464C512.361 304.237 494.893 320.975 475.944 324.233C466.321 325.863 456.107 323.937 448.113 317.42C439.97 310.755 433.901 299.053 433.013 281.279C432.717 275.798 432.568 270.17 432.717 264.689C433.457 186.186 467.506 107.387 467.506 107.387C467.506 107.387 471.355 91.834 487.491 88.5754C509.548 84.1318 531.162 97.4626 545.374 109.312C534.567 117.607 526.425 114.496 513.99 105.461C518.283 122.643 501.406 127.086 501.406 127.086" fill="white"/>
<path d="M469.43 325.863C471.651 325.863 473.871 325.715 476.24 325.27C495.633 322.012 513.546 304.978 509.697 282.316C500.222 225.438 500.666 145.009 500.666 144.268H498.594C498.594 145.009 498.15 225.734 507.624 282.76C511.177 304.237 494.301 320.234 475.796 323.345C465.729 325.122 456.107 322.752 448.853 316.827C440.118 309.57 434.937 297.424 434.197 281.427C433.901 276.095 433.753 270.466 433.901 264.838C434.641 187.371 468.246 108.72 468.69 107.831V107.683C468.69 107.535 472.539 92.7228 487.935 89.7604C509.252 85.613 529.978 97.907 543.893 109.46C534.123 116.274 526.573 113.311 514.878 104.72L512.509 103.091L513.249 105.905C517.247 121.902 501.999 126.05 501.406 126.198L501.999 128.123C502.147 128.123 518.135 123.68 515.914 107.831C527.609 115.978 535.751 118.347 546.41 110.201L547.446 109.46L546.41 108.572C532.05 96.5739 510.289 83.095 487.639 87.5386C471.799 90.6491 467.209 105.609 466.913 106.942C465.729 109.756 432.865 187.815 431.976 264.689C431.976 270.318 431.976 275.946 432.272 281.279C433.161 297.868 438.49 310.606 447.816 318.161C453.59 323.197 461.14 325.863 469.43 325.863Z" fill="black"/>
<path d="M525.241 133.9C525.241 133.9 514.434 141.75 503.331 143.676C492.228 145.601 485.566 142.491 485.566 142.491" fill="white"/>
<path d="M496.077 145.305C498.298 145.305 500.666 145.157 503.331 144.713C514.582 142.787 525.241 135.085 525.685 134.789L524.5 133.159C524.352 133.308 513.694 140.862 502.887 142.787C492.228 144.565 485.714 141.75 485.714 141.75L484.826 143.676C485.122 143.528 489.119 145.305 496.077 145.305Z" fill="black"/>
<path d="M278.905 210.922C248.705 175.225 214.508 196.999 213.916 236.843C213.323 276.687 189.785 394.294 189.785 394.294C189.785 394.294 212.435 439.174 283.642 444.21C354.996 449.246 372.909 424.659 372.909 424.659C372.909 424.659 392.006 287.944 386.381 249.878C380.755 211.811 351.443 216.254 344.782 227.512C278.905 210.922 278.905 210.922 278.905 210.922Z" fill="#E7E7E9"/>
<path d="M283.642 445.099C212.583 440.063 189.193 395.183 188.897 394.738L188.749 394.442V394.146C189.045 392.961 212.287 276.095 212.879 236.843C213.175 215.81 222.798 198.776 237.602 193.444C251.073 188.556 266.321 194.629 279.497 209.885L344.486 226.03C348.335 220.254 357.069 217.143 365.211 218.624C372.021 219.958 384.012 225.734 387.565 249.433C393.19 287.204 374.241 423.177 374.093 424.51V424.807L373.945 424.955C373.205 425.844 358.253 445.692 302.591 445.692C296.669 445.84 290.452 445.543 283.642 445.099ZM385.344 249.878C382.087 227.512 370.984 222.031 364.619 220.846C356.329 219.217 348.483 223.216 345.67 227.956L345.226 228.548L278.608 211.811H278.312L278.164 211.515C265.581 196.703 251.073 190.778 238.342 195.37C224.426 200.406 215.248 216.551 214.952 236.843C214.36 275.058 192.45 386.74 190.97 393.998C193.19 397.849 217.024 438.286 283.79 443.025C350.259 447.765 370.096 426.288 372.021 424.066C372.909 417.104 390.822 286.463 385.344 249.878Z" fill="black"/>
<path d="M332.346 283.056C344.041 283.056 353.664 278.909 358.845 271.651C375.722 247.656 358.253 219.365 358.105 219.069L356.329 220.106C356.477 220.402 373.205 247.656 357.069 270.466C352.036 277.724 342.117 281.427 329.978 280.983C314.582 280.242 294.597 271.799 284.678 254.469L282.902 255.506C291.932 271.355 310.437 282.168 329.83 283.056C330.718 283.056 331.458 283.056 332.346 283.056Z" fill="black"/>
<path d="M270.17 233.733L271.799 232.548C271.651 232.4 262.768 220.254 265.137 198.184L263.064 198.036C260.696 220.846 269.874 233.14 270.17 233.733Z" fill="black"/>
<path d="M325.537 347.044C327.313 309.718 328.942 282.168 328.942 282.019L326.869 281.871C326.869 282.168 325.389 309.718 323.464 346.896L325.537 347.044Z" fill="black"/>
<path d="M367.432 220.402C412.731 232.992 421.318 248.841 421.318 248.841L404.885 330.306L375.87 325.27" fill="#E7E7E9"/>
<path d="M405.625 331.491L422.354 248.545L422.206 248.248C421.91 247.656 412.879 231.955 367.728 219.365L367.135 221.291C407.846 232.696 418.653 246.619 420.133 248.841L404.145 329.122L376.166 324.234L375.87 326.307L405.625 331.491Z" fill="black"/>
<path d="M202.073 404.81L229.46 401.552C229.46 401.552 253.738 399.774 267.506 398.737C281.273 397.701 285.862 372.668 251.073 374.446C230.644 375.631 210.807 385.703 202.073 404.81Z" fill="white"/>
<path d="M201.184 404.366C209.474 386.295 228.127 374.742 251.073 373.409C270.91 372.372 278.312 379.778 278.756 387.184C279.201 393.701 274.167 399.182 267.506 399.626C253.886 400.515 229.608 402.292 229.46 402.44L200.296 405.995L201.184 404.366ZM251.221 375.483C229.756 376.668 212.287 387.036 203.849 403.477L229.46 400.367C229.756 400.367 253.886 398.589 267.506 397.553C272.983 397.256 277.128 392.516 276.832 387.184C276.536 381.259 270.466 375.186 254.774 375.186C253.59 375.483 252.406 375.483 251.221 375.483Z" fill="black"/>
<path d="M355.885 339.934L254.626 316.679C249.297 315.494 243.967 318.901 242.783 324.233L214.064 460.059C212.879 465.391 216.432 470.723 221.762 471.76L327.165 491.905C332.494 492.941 337.676 489.387 338.712 484.054L363.435 351.339C364.323 346.155 361.066 341.119 355.885 339.934Z" fill="white"/>
<path d="M327.017 492.941L221.614 472.797C218.801 472.205 216.284 470.575 214.656 468.205C213.027 465.687 212.435 462.873 213.027 459.911L241.747 324.085C242.339 321.271 244.115 318.753 246.484 317.124C249.001 315.494 251.962 315.05 254.774 315.642L356.033 339.045C361.658 340.378 365.359 345.859 364.323 351.635L339.6 484.35C339.008 487.165 337.38 489.683 335.011 491.312C333.235 492.497 331.014 493.238 328.942 493.238C328.349 493.09 327.757 493.09 327.017 492.941ZM247.668 318.753C245.596 320.086 244.264 322.012 243.819 324.381L215.1 460.207C214.656 462.577 215.1 464.947 216.432 466.872C217.765 468.798 219.837 470.131 222.058 470.575L327.461 490.72C329.83 491.164 332.05 490.72 334.123 489.387C336.047 488.053 337.38 485.98 337.824 483.758L362.546 351.043C363.435 346.451 360.474 341.86 355.885 340.823L254.626 317.42C254.034 317.272 253.294 317.124 252.702 317.124C250.777 317.42 249.149 317.864 247.668 318.753Z" fill="black"/>
<path d="M337.528 353.561L265.433 335.639C261.584 334.75 257.883 337.268 256.995 341.415L236.566 445.988C235.825 450.135 238.194 454.134 242.043 455.023L317.098 470.576C320.947 471.316 324.648 468.65 325.241 464.503L342.857 362.448C343.449 358.301 341.229 354.45 337.528 353.561Z" fill="white"/>
<path d="M316.802 471.464L241.747 455.912C237.306 455.023 234.493 450.431 235.381 445.691L255.811 341.119C256.255 338.749 257.587 336.675 259.511 335.491C261.288 334.306 263.36 334.009 265.433 334.454L337.528 352.376L337.232 353.413L337.528 352.376C341.673 353.413 344.338 357.708 343.597 362.3L325.981 464.354C325.537 466.724 324.204 468.798 322.428 469.983C321.096 470.872 319.615 471.316 318.135 471.316C317.839 471.612 317.395 471.612 316.802 471.464ZM260.844 337.268C259.363 338.157 258.327 339.786 258.031 341.563L237.602 446.136C236.862 449.691 239.082 453.245 242.339 453.986L317.395 469.539C318.875 469.835 320.355 469.539 321.688 468.65C323.168 467.613 324.056 466.132 324.352 464.354L341.969 362.3C342.561 358.893 340.637 355.487 337.38 354.746L265.285 336.824C264.841 336.675 264.397 336.675 263.953 336.675C262.768 336.379 261.732 336.675 260.844 337.268Z" fill="black"/>
<path d="M185.344 417.993C205.181 396.664 221.466 400.663 221.466 400.663C239.822 400.663 231.088 437.1 224.574 458.281C218.061 479.463 189.933 478.722 171.281 472.501C150.111 465.391 129.238 440.211 112.361 408.81C95.6329 377.556 73.5751 331.787 92.228 304.978C111.325 277.724 171.429 236.102 171.429 236.102L213.916 303.349L148.927 346.896C148.927 346.896 174.093 399.182 185.344 417.993Z" fill="white"/>
<path d="M170.984 473.538C151.295 467.021 130.126 444.21 111.621 409.402C91.6358 372.076 73.4271 330.306 91.4878 304.534C110.437 277.428 170.244 235.806 170.836 235.362L171.725 234.769L215.248 303.793L150.259 347.34C153.368 353.857 174.981 398.145 185.492 416.364C204.293 396.664 219.837 399.33 221.466 399.774C225.167 399.774 227.979 401.256 229.904 403.922C237.01 413.698 231.384 439.174 225.463 458.726C223.39 465.243 219.245 470.279 213.175 473.39C207.55 476.352 200.888 477.389 194.078 477.389C185.936 477.389 177.646 475.76 170.984 473.538ZM186.084 418.734L185.196 419.77L184.456 418.586C173.353 399.922 148.187 347.933 148.038 347.34L147.594 346.599L212.435 303.2L171.132 237.732C163.583 243.064 110.585 280.686 93.1162 305.718C75.6477 330.751 94.7446 373.853 113.397 408.513C131.754 442.877 152.48 465.243 171.725 471.612C183.124 475.463 200.592 477.685 212.287 471.612C217.913 468.65 221.762 464.206 223.538 458.133C231.828 431.028 233.605 412.068 228.423 405.107C226.795 402.885 224.574 401.848 221.466 401.848H221.169C221.169 401.848 220.133 401.552 218.209 401.552C212.731 401.552 200.296 403.477 186.084 418.734Z" fill="black"/>
<path d="M203.553 403.033C214.804 385.407 253.886 387.184 270.762 394.146C287.639 401.108 284.53 415.327 267.061 411.624C249.445 407.921 222.798 408.069 216.728 420.511" fill="white"/>
<path d="M217.469 420.808C223.242 409.106 249.741 408.958 266.765 412.513C276.684 414.586 281.421 411.18 282.605 407.625C283.938 403.329 280.977 397.256 271.059 393.109C254.034 385.999 214.212 384.222 202.665 402.293L204.441 403.329C215.1 386.74 253.59 387.925 270.318 394.887C278.905 398.441 281.569 403.626 280.681 406.884C279.793 409.847 275.204 412.068 267.209 410.439C250.777 406.884 222.206 406.44 215.692 419.771L217.469 420.808Z" fill="black"/>
<path d="M203.553 414.586C214.804 396.96 253.886 398.738 270.762 405.699C287.491 412.661 284.53 426.88 267.061 423.177C249.445 419.474 222.798 419.622 216.728 432.064" fill="white"/>
<path d="M217.469 432.509C223.242 420.807 249.741 420.659 266.765 424.214C276.684 426.288 281.421 422.881 282.605 419.326C283.938 415.031 280.977 408.958 271.059 404.811C254.034 397.701 214.212 395.923 202.665 413.994L204.441 415.031C215.1 398.441 253.59 399.626 270.318 406.588C278.905 410.143 281.569 415.327 280.681 418.586C279.793 421.548 275.204 423.77 267.209 422.141C250.777 418.586 222.206 418.141 215.692 431.472L217.469 432.509Z" fill="black"/>
<path d="M200.592 433.546C211.843 415.919 250.925 417.697 267.802 424.658C284.53 431.62 281.569 445.84 264.101 442.137C246.632 438.434 219.837 438.582 213.768 451.024" fill="white"/>
<path d="M214.508 451.468C220.281 439.767 246.78 439.619 263.805 443.173C273.723 445.247 278.46 441.84 279.645 438.285C280.977 433.99 278.016 427.917 268.098 423.77C251.073 416.66 211.251 414.883 199.704 432.953L201.48 433.99C212.139 417.401 250.629 418.586 267.358 425.547C275.944 429.102 278.608 434.286 277.72 437.545C276.832 440.507 272.243 442.729 264.249 441.1C247.816 437.545 219.245 437.101 212.731 450.431L214.508 451.468Z" fill="black"/>
<path d="M197.187 453.097C208.438 435.471 247.52 437.249 264.397 444.21C281.125 451.172 278.164 465.391 260.696 461.688C243.227 457.985 216.432 458.133 210.363 470.575" fill="white"/>
<path d="M211.251 471.02C217.024 459.318 243.523 459.17 260.548 462.725C270.466 464.799 275.204 461.392 276.388 457.837C277.72 453.542 274.759 447.469 264.841 443.322C247.816 436.212 207.994 434.434 196.447 452.505L198.224 453.542C208.882 436.952 247.372 438.137 264.101 445.099C272.687 448.654 275.352 453.838 274.463 457.097C273.575 460.059 268.986 462.281 260.992 460.652C244.56 457.097 215.988 456.652 209.474 469.983L211.251 471.02Z" fill="black"/>
<path d="M248.113 192.851C207.55 189.148 160.178 236.25 160.178 236.25L208.586 318.753L254.774 288.24" fill="#E7E7E9"/>
<path d="M208.29 320.234L255.366 289.129L254.182 287.352L208.882 317.272L161.362 236.399C166.839 231.214 210.659 190.482 247.965 193.888L248.113 191.815C207.55 188.112 161.362 233.584 159.437 235.51L158.845 236.102L208.29 320.234Z" fill="black"/>
<path d="M338.712 332.084L323.76 400.811L261.14 388.369L275.352 317.42L338.712 332.084Z" fill="#F1CB57"/>
<path d="M259.956 389.11L274.611 316.087L340.044 331.195L324.796 401.996L259.956 389.11ZM276.092 318.605L262.324 387.48L323.02 399.626L337.528 332.676L276.092 318.605Z" fill="black"/>
<path d="M282.754 138.196V109.757C282.754 91.8342 289.711 74.9486 301.85 63.3953C313.249 52.5825 327.905 47.2502 344.338 48.1389C390.674 50.5089 396.743 86.65 396.891 118.051C398.076 119.829 403.997 130.345 403.701 146.787C403.257 162.932 390.97 193.592 347.446 193.592C322.428 193.592 304.367 179.521 293.708 164.857C286.454 154.933 282.754 144.713 282.754 138.196ZM303.183 65.0246C291.488 76.1335 284.678 92.5748 284.678 109.905V138.344C284.678 153.896 306.588 191.815 347.15 191.815C389.193 191.815 401.036 162.487 401.332 146.935C401.776 129.901 394.819 119.236 394.819 119.088L394.671 118.792V118.496C394.671 86.0575 388.601 52.5825 344.189 50.3607C343.153 50.3607 341.969 50.2126 340.933 50.2126C326.425 50.2126 313.397 55.2487 303.183 65.0246Z" fill="black"/>
<path d="M303.183 109.312C303.183 109.312 294.449 92.7228 283.494 99.9807C272.687 107.239 278.016 151.082 300.666 141.158" fill="white"/>
<path d="M294.301 143.676C296.521 143.676 298.742 143.232 301.11 142.047L300.222 140.121C291.192 144.12 286.01 138.788 283.198 133.752C277.424 123.087 277.868 105.017 283.938 100.869C286.306 99.2401 288.675 98.7957 291.044 99.3882C297.409 101.017 301.999 109.608 301.999 109.757L303.775 108.868C303.627 108.423 298.742 99.3882 291.488 97.4626C288.527 96.722 285.566 97.3145 282.605 99.2401C275.352 104.128 274.611 123.087 281.125 134.937C284.678 140.713 289.119 143.676 294.301 143.676Z" fill="black"/>
<path d="M294.893 125.753C294.893 125.753 294.597 113.756 286.751 111.238Z" fill="white"/>
<path d="M293.856 125.753H295.929C295.929 125.161 295.633 112.867 287.047 110.349L286.454 112.275C293.56 114.348 293.856 125.605 293.856 125.753Z" fill="black"/>
<path d="M381.347 64.5802C369.208 51.5457 343.745 63.8396 344.189 86.2056C344.634 108.572 317.839 111.238 317.839 111.238V125.754H306.588L300.37 105.017C300.37 105.017 293.116 94.0559 283.642 100.129C268.986 75.8373 290.748 65.4689 290.748 65.4689C290.748 65.4689 315.618 18.0707 362.25 36.7337C408.882 55.3968 392.894 88.1312 392.894 88.1312C392.894 88.1312 393.338 77.6147 381.347 64.5802Z" fill="black"/>
<path d="M299.334 105.313C298.446 104.128 292.08 95.6852 284.086 100.869L283.198 101.462L282.605 100.573C277.72 92.5747 276.24 85.0206 278.164 78.3553C280.681 69.7643 288.231 65.4689 289.859 64.5801C292.08 60.5809 317.543 17.6263 362.546 35.6969C379.127 42.3622 389.785 51.5456 394.227 62.9508C399.408 76.4297 393.93 87.983 393.634 88.4274L391.414 93.0191L391.71 87.983C391.71 87.8349 392.154 77.9109 380.459 65.3207C375.722 60.1366 368.32 58.9516 360.918 61.914C353.516 64.8764 344.782 73.1711 345.078 86.3537C345.522 107.09 323.464 111.534 318.727 112.275V126.79H305.7L299.334 105.313ZM316.654 110.349L317.543 110.201C317.839 110.201 343.449 107.387 343.005 86.2056C342.709 71.9861 352.036 63.099 360.03 59.8403C368.172 56.5817 376.61 58.0629 381.939 63.8396C389.489 71.9861 392.154 78.9477 393.19 83.3913C394.375 79.0959 395.263 71.6899 392.302 63.6914C388.157 52.7306 377.794 43.9915 361.806 37.6224C316.654 19.5518 291.784 65.4689 291.636 65.9132L291.488 66.2095L291.192 66.3576C291.044 66.3576 282.902 70.3568 280.385 79.0959C278.608 84.8725 279.941 91.5379 284.086 98.7957C293.856 93.4634 301.258 104.424 301.258 104.572L307.476 124.865H316.95V110.349H316.654Z" fill="black"/>
<path d="M366.247 148.12C367.876 148.12 369.652 147.675 370.984 146.935C374.833 145.009 378.09 141.01 376.462 137.603C364.767 112.423 371.429 105.757 371.577 105.609L370.244 104.128C369.948 104.424 362.102 111.534 374.685 138.492C375.574 140.417 373.501 143.528 370.096 145.157C368.468 145.898 362.99 147.971 359.882 141.75L358.105 142.639C360.03 146.786 363.138 148.12 366.247 148.12Z" fill="black"/>
<path d="M380.755 123.236H381.791C383.568 123.236 385.048 121.754 385.048 119.977V116.57C385.048 114.793 383.568 113.312 381.791 113.312H380.755C378.979 113.312 377.498 114.793 377.498 116.57V119.977C377.498 121.754 378.979 123.236 380.755 123.236Z" fill="black"/>
<path d="M393.486 102.203L395.411 101.314C394.078 98.4996 390.97 96.574 387.121 96.2778C383.124 95.9815 379.571 97.4627 377.498 100.277L379.127 101.462C380.755 99.2402 383.568 98.0552 386.825 98.3514C389.933 98.4996 392.45 99.9807 393.486 102.203Z" fill="black"/>
<path d="M339.896 123.236H340.933C342.709 123.236 344.19 121.754 344.19 119.977V116.57C344.19 114.793 342.709 113.312 340.933 113.312H339.896C338.12 113.312 336.64 114.793 336.64 116.57V119.977C336.492 121.754 337.972 123.236 339.896 123.236Z" fill="black"/>
<path d="M351.295 103.091L353.22 102.203C351.888 99.3882 348.779 97.4627 344.93 97.1664C340.933 96.8702 337.38 98.3514 335.307 101.166L336.936 102.351C338.564 100.129 341.377 98.9439 344.634 99.2401C347.742 99.3882 350.259 100.869 351.295 103.091Z" fill="black"/>
<path d="M351.888 163.82C354.256 163.82 355.737 163.524 355.885 163.524L355.44 161.598C354.7 161.747 338.416 165.45 328.794 145.305L326.869 146.194C334.271 161.598 345.818 163.82 351.888 163.82Z" fill="black"/>
<path d="M298.002 162.783L278.905 210.774C278.905 210.774 279.349 236.547 314.138 253.432C348.927 270.318 344.634 238.621 344.634 238.621V192.555C344.634 192.555 327.017 192.111 316.654 180.113" fill="white"/>
<path d="M331.458 259.653C334.863 259.653 337.676 258.765 339.896 257.135C347.446 251.655 345.818 239.213 345.67 238.621V191.667H344.634C344.486 191.667 327.313 191.074 317.395 179.521L315.914 180.854C325.093 191.519 339.748 193.296 343.745 193.592V238.621C343.745 238.917 345.226 250.47 338.712 255.358C333.827 258.913 325.833 257.876 314.73 252.544C282.309 236.843 280.089 213.292 280.089 210.922L299.038 163.08L297.113 162.339L278.016 210.626V210.774C278.016 211.07 278.756 237.436 313.842 254.469C320.651 257.876 326.573 259.653 331.458 259.653Z" fill="black"/>
<path d="M352.332 8.44286L436.714 50.6569C444.264 54.508 442.339 65.7651 433.901 66.8019L345.522 77.7628C344.189 77.9109 342.709 77.7628 341.377 77.3184L253.738 43.3991C245.744 40.2885 246.78 28.7352 255.07 27.1059L346.706 7.70226C348.631 7.40603 350.555 7.70226 352.332 8.44286Z" fill="black"/>
<path d="M211.251 119.532C255.218 113.015 264.693 43.6953 264.841 42.9547L262.768 42.6584C262.62 43.399 253.294 111.238 210.955 117.459L211.251 119.532Z" fill="black"/>
<path d="M196.743 139.528C205.737 139.528 213.027 132.234 213.027 123.235C213.027 114.237 205.737 106.942 196.743 106.942C187.75 106.942 180.459 114.237 180.459 123.235C180.459 132.234 187.75 139.528 196.743 139.528Z" fill="#F1CB57"/>
<path d="M179.571 123.235C179.571 113.756 187.269 105.905 196.891 105.905C206.514 105.905 214.212 113.608 214.212 123.235C214.212 132.863 206.514 140.565 196.891 140.565C187.269 140.565 179.571 132.715 179.571 123.235ZM181.495 123.235C181.495 131.678 188.305 138.492 196.743 138.492C205.181 138.492 211.991 131.678 211.991 123.235C211.991 114.793 205.181 107.979 196.743 107.979C188.305 107.979 181.495 114.793 181.495 123.235Z" fill="black"/>
<path d="M133.531 182.187C144.241 182.187 152.924 173.5 152.924 162.783C152.924 152.067 144.241 143.38 133.531 143.38C122.82 143.38 114.138 152.067 114.138 162.783C114.138 173.5 122.82 182.187 133.531 182.187Z" fill="white"/>
<path d="M113.101 162.783C113.101 151.526 122.28 142.343 133.531 142.343C144.782 142.343 153.96 151.526 153.96 162.783C153.96 174.04 144.782 183.224 133.531 183.224C122.28 183.224 113.101 174.04 113.101 162.783ZM115.174 162.783C115.174 172.856 123.464 181.15 133.531 181.15C143.597 181.15 151.888 172.856 151.888 162.783C151.888 152.711 143.597 144.417 133.531 144.417C123.464 144.417 115.174 152.711 115.174 162.783Z" fill="black"/>
<path d="M132.494 163.08L134.567 162.635C134.419 162.043 122.28 103.536 148.631 65.3208C160.77 47.6945 179.275 36.8818 203.701 33.327L203.405 31.2533C178.534 34.9563 159.437 46.0652 147.002 64.1358C119.911 103.091 132.346 162.487 132.494 163.08Z" fill="black"/>
<path d="M88.8231 199.813C91.7664 199.813 94.1525 197.426 94.1525 194.481C94.1525 191.536 91.7664 189.149 88.8231 189.149C85.8798 189.149 83.4937 191.536 83.4937 194.481C83.4937 197.426 85.8798 199.813 88.8231 199.813Z" fill="black"/>
<path d="M66.0252 214.329C68.9685 214.329 71.3546 211.942 71.3546 208.997C71.3546 206.052 68.9685 203.665 66.0252 203.665C63.0818 203.665 60.6958 206.052 60.6958 208.997C60.6958 211.942 63.0818 214.329 66.0252 214.329Z" fill="black"/>
<path d="M43.2272 228.993C46.1706 228.993 48.5566 226.605 48.5566 223.66C48.5566 220.715 46.1706 218.328 43.2272 218.328C40.2839 218.328 37.8979 220.715 37.8979 223.66C37.8979 226.605 40.2839 228.993 43.2272 228.993Z" fill="black"/>
<path d="M100.814 218.476C103.758 218.476 106.144 216.089 106.144 213.144C106.144 210.199 103.758 207.812 100.814 207.812C97.8709 207.812 95.4848 210.199 95.4848 213.144C95.4848 216.089 97.8709 218.476 100.814 218.476Z" fill="black"/>
<path d="M78.0163 233.14C80.9596 233.14 83.3457 230.753 83.3457 227.808C83.3457 224.863 80.9596 222.476 78.0163 222.476C75.0729 222.476 72.6869 224.863 72.6869 227.808C72.6869 230.753 75.0729 233.14 78.0163 233.14Z" fill="black"/>
<path d="M55.2184 247.656C58.1617 247.656 60.5477 245.268 60.5477 242.324C60.5477 239.379 58.1617 236.991 55.2184 236.991C52.275 236.991 49.889 239.379 49.889 242.324C49.889 245.268 52.275 247.656 55.2184 247.656Z" fill="black"/>
<path d="M112.805 237.139C115.749 237.139 118.135 234.752 118.135 231.807C118.135 228.862 115.749 226.475 112.805 226.475C109.862 226.475 107.476 228.862 107.476 231.807C107.476 234.752 109.862 237.139 112.805 237.139Z" fill="black"/>
<path d="M90.0074 251.803C92.9508 251.803 95.3368 249.416 95.3368 246.471C95.3368 243.526 92.9508 241.139 90.0074 241.139C87.0641 241.139 84.678 243.526 84.678 246.471C84.678 249.416 87.0641 251.803 90.0074 251.803Z" fill="black"/>
<path d="M67.2095 266.467C70.1528 266.467 72.5389 264.08 72.5389 261.135C72.5389 258.19 70.1528 255.802 67.2095 255.802C64.2661 255.802 61.8801 258.19 61.8801 261.135C61.8801 264.08 64.2661 266.467 67.2095 266.467Z" fill="black"/>
<path d="M476.536 437.841C492.152 437.841 504.811 425.175 504.811 409.55C504.811 393.926 492.152 381.26 476.536 381.26C460.92 381.26 448.261 393.926 448.261 409.55C448.261 425.175 460.92 437.841 476.536 437.841Z" fill="white"/>
<path d="M447.224 409.55C447.224 393.405 460.4 380.223 476.536 380.223C492.672 380.223 505.848 393.405 505.848 409.55C505.848 425.695 492.672 438.878 476.536 438.878C460.4 438.878 447.224 425.695 447.224 409.55ZM449.297 409.55C449.297 424.51 461.436 436.804 476.536 436.804C491.488 436.804 503.775 424.659 503.775 409.55C503.775 394.442 491.636 382.296 476.536 382.296C461.584 382.296 449.297 394.59 449.297 409.55Z" fill="black"/>
<path d="M344.93 529.083C403.405 526.417 436.417 493.978 453.738 467.317C472.539 438.434 477.572 409.847 477.572 409.55L475.5 409.254C475.5 409.55 470.466 437.693 451.961 466.28C434.937 492.497 402.369 524.343 344.782 527.009L344.93 529.083Z" fill="black"/>
<path d="M547.002 307.941C549.946 307.941 552.332 305.553 552.332 302.608C552.332 299.663 549.946 297.276 547.002 297.276C544.059 297.276 541.673 299.663 541.673 302.608C541.673 305.553 544.059 307.941 547.002 307.941Z" fill="black"/>
<path d="M528.942 327.937C531.885 327.937 534.271 325.549 534.271 322.604C534.271 319.659 531.885 317.272 528.942 317.272C525.998 317.272 523.612 319.659 523.612 322.604C523.612 325.549 525.998 327.937 528.942 327.937Z" fill="black"/>
<path d="M510.733 348.081C513.676 348.081 516.062 345.694 516.062 342.749C516.062 339.804 513.676 337.416 510.733 337.416C507.79 337.416 505.403 339.804 505.403 342.749C505.403 345.694 507.79 348.081 510.733 348.081Z" fill="black"/>
<path d="M563.583 322.753C566.526 322.753 568.912 320.365 568.912 317.42C568.912 314.475 566.526 312.088 563.583 312.088C560.639 312.088 558.253 314.475 558.253 317.42C558.253 320.365 560.639 322.753 563.583 322.753Z" fill="black"/>
<path d="M545.374 342.897C548.317 342.897 550.703 340.509 550.703 337.564C550.703 334.62 548.317 332.232 545.374 332.232C542.43 332.232 540.044 334.62 540.044 337.564C540.044 340.509 542.43 342.897 545.374 342.897Z" fill="black"/>
<path d="M527.313 362.893C530.256 362.893 532.642 360.505 532.642 357.561C532.642 354.616 530.256 352.228 527.313 352.228C524.37 352.228 521.984 354.616 521.984 357.561C521.984 360.505 524.37 362.893 527.313 362.893Z" fill="black"/>
<path d="M580.015 337.712C582.958 337.712 585.344 335.325 585.344 332.38C585.344 329.435 582.958 327.048 580.015 327.048C577.071 327.048 574.685 329.435 574.685 332.38C574.685 335.325 577.071 337.712 580.015 337.712Z" fill="black"/>
<path d="M561.954 357.709C564.897 357.709 567.284 355.321 567.284 352.376C567.284 349.431 564.897 347.044 561.954 347.044C559.011 347.044 556.625 349.431 556.625 352.376C556.625 355.321 559.011 357.709 561.954 357.709Z" fill="black"/>
<path d="M543.745 377.853C546.689 377.853 549.075 375.466 549.075 372.521C549.075 369.576 546.689 367.188 543.745 367.188C540.802 367.188 538.416 369.576 538.416 372.521C538.416 375.466 540.802 377.853 543.745 377.853Z" fill="black"/>
</svg>
