<svg xmlns="http://www.w3.org/2000/svg" height="800" width="1200" viewBox="-19.984845 -8.388275 173.20199 50.32965"><g fill="none"><path d="M5.5766 14.3568c-1.5507.0296-2.8927.6218-3.9662 1.7767C.507 17.2883 0 18.68 0 20.279c.0298 1.6287.5964 2.9909 1.7296 4.1161 1.1333 1.1253 2.4454 1.6879 4.026 1.6583 1.5805-.0296 2.9224-.5923 3.996-1.7471 1.0736-1.1549 1.6104-2.5467 1.5806-4.1753-.0299-1.6287-.5965-2.9908-1.6999-4.116-1.1332-1.1253-2.4751-1.688-4.0557-1.6583z" fill="#FF671D"/><path d="M63.5262 6.6215c-3.8427 0-7.06 1.3123-9.7111 3.907-2.6513 2.5947-3.962 5.786-3.962 9.5439 0 3.728 1.3107 6.8894 3.9322 9.514 2.6214 2.6245 5.8088 3.9368 9.5026 3.9368 3.7534 0 6.911-1.3123 9.5325-3.9368 2.6214-2.6246 3.9321-5.786 3.9321-9.5439 0-3.6684-1.3107-6.8298-3.9023-9.4842-2.5917-2.5947-5.6897-3.9368-9.324-3.9368zM67.369 24.218c-1.0724 1.1631-2.4129 1.7596-3.9917 1.7596-1.549.0298-2.8895-.5368-4.0215-1.6702-1.132-1.1333-1.698-2.535-1.7278-4.1456-.0298-1.6403.5064-3.0123 1.6086-4.1754 1.0724-1.1632 2.413-1.7597 3.962-1.7895 1.5788-.0298 2.9193.5369 4.0215 1.6702 1.1022 1.1333 1.6682 2.5053 1.698 4.1456.0595 1.6404-.4767 3.0421-1.549 4.2053zM34.5416 6.6215c-2.2044 0-4.23.4473-6.0471 1.3123V.0004h-7.626v20.1018c0 3.728 1.3107 6.8894 3.9321 9.514 2.6215 2.6246 5.8089 3.9369 9.5027 3.9369 3.7534 0 6.911-1.3123 9.5325-3.9369 2.6214-2.6246 3.9321-5.786 3.9321-9.5438 0-3.6685-1.3107-6.8299-3.9023-9.4843-2.5917-2.6245-5.6897-3.9666-9.324-3.9666zm3.7832 17.6561c-1.1022 1.1333-2.4427 1.7298-4.0215 1.7298-1.549 0-2.8895-.5666-3.9917-1.7298-1.1022-1.1631-1.6682-2.535-1.6682-4.1754 0-1.6404.566-3.0123 1.6384-4.1755 1.1022-1.1631 2.4427-1.7298 3.9917-1.7298 1.5788 0 2.9193.5667 4.0215 1.7298 1.1022 1.1334 1.6384 2.5351 1.6384 4.1755.0298 1.6105-.5064 3.0123-1.6086 4.1754zM87.03 19.744V0h-7.656v32.986h5.958l6.613-8.887 6.434 8.858h8.758L96.264 18.343l8.282-11.065h-8.49zm38.6062-12.4962v12.8246c0 1.6403-.7448 3.042-1.8172 4.1754-1.1022 1.1333-2.4427 1.7298-4.0215 1.7298-1.549 0-2.8895-.5667-3.9917-1.7298-1.1022-1.1632-1.8171-2.5351-1.8171-4.1754V7.2776h-7.6558v12.7948c0 3.728 1.3107 6.8894 3.9322 9.514 2.6214 2.6245 5.8088 3.9368 9.5026 3.9368 3.7534 0 6.911-1.3123 9.5325-3.9368 2.6214-2.6246 3.9321-5.786 3.9321-9.5439V7.218h-7.5961z" fill="#222"/></g></svg>