<svg height="800" width="1200" viewBox="0 0 108 38" fill="#0a58ca" xmlns="http://www.w3.org/2000/svg">
<path d="M53.204 29C52.9427 28.2347 52.672 27.4787 52.392 26.732C52.112 25.9853 51.8413 25.22 51.58 24.436H43.404C43.1427 25.22 42.872 25.9947 42.592 26.76C42.3307 27.5067 42.0693 28.2533 41.808 29H38.14C38.868 26.928 39.5587 25.0147 40.212 23.26C40.8653 21.5053 41.5 19.844 42.116 18.276C42.7507 16.708 43.376 15.2147 43.992 13.796C44.608 12.3773 45.2427 10.9773 45.896 9.59601H49.228C49.8813 10.9773 50.516 12.3773 51.132 13.796C51.748 15.2147 52.364 16.708 52.98 18.276C53.6147 19.844 54.2587 21.5053 54.912 23.26C55.584 25.0147 56.284 26.928 57.012 29H53.204ZM47.492 13.348C47.0627 14.3373 46.568 15.5413 46.008 16.96C45.4667 18.3787 44.8973 19.9187 44.3 21.58H50.684C50.0867 19.9187 49.508 18.3693 48.948 16.932C48.388 15.4947 47.9027 14.3 47.492 13.348Z" fill="#0a58ca"/>
<path d="M74.5286 25.948V29H62.2646V9.59601H65.7926V25.948H74.5286Z" fill="#0a58ca"/>
<path d="M87.0602 29.42C85.7348 29.42 84.5962 29.2333 83.6442 28.86C82.6922 28.468 81.8988 27.9267 81.2642 27.236C80.6482 26.5453 80.1908 25.7333 79.8922 24.8C79.5935 23.8667 79.4442 22.84 79.4442 21.72V9.59601H83.0002V21.384C83.0002 22.2613 83.0935 23.0173 83.2802 23.652C83.4855 24.268 83.7655 24.772 84.1202 25.164C84.4935 25.556 84.9228 25.8453 85.4082 26.032C85.9122 26.2187 86.4722 26.312 87.0882 26.312C87.7042 26.312 88.2642 26.2187 88.7682 26.032C89.2722 25.8453 89.7015 25.556 90.0562 25.164C90.4295 24.772 90.7095 24.268 90.8962 23.652C91.1015 23.0173 91.2042 22.2613 91.2042 21.384V9.59601H94.7602V21.72C94.7602 22.84 94.6015 23.8667 94.2842 24.8C93.9855 25.7333 93.5188 26.5453 92.8842 27.236C92.2682 27.9267 91.4748 28.468 90.5042 28.86C89.5335 29.2333 88.3855 29.42 87.0602 29.42Z" fill="#0a58ca"/>
<path d="M102.072 9.59601H105.6V29H102.072V9.59601Z" fill="#0a58ca"/>
<path d="M28.8499 10.5748L13.6225 0.789117C11.9518 -0.308785 9.80372 -0.26105 8.18074 0.932322C6.55775 2.12569 5.84173 4.13056 6.36681 6.08769L8.27621 12.5319L2.40483 18.7852C-0.841146 22.5085 2.54803 25.7545 2.59576 25.8022L2.6435 25.8499L18.1096 37.2108C18.1573 37.2586 18.2051 37.2586 18.2528 37.3063C18.8256 37.545 19.4462 37.6404 20.019 37.6404C21.2601 37.6404 22.4535 37.1631 23.4082 36.2084C24.7447 34.8241 25.1744 32.8669 24.4583 31.053L22.3103 24.4656L28.8977 18.5465C30.2342 17.6395 30.998 16.1597 30.998 14.5845C31.0457 12.9615 30.2342 11.434 28.8499 10.5748ZM23.074 31.5781V31.6258C23.6946 33.1056 23.1218 34.4422 22.358 35.206C21.642 35.9697 20.3531 36.5425 18.8733 36.0175L3.55046 24.7043C3.26405 24.4179 1.25919 22.3175 3.50273 19.7876L8.80129 14.1071L11.9518 24.6088C12.3814 26.0886 13.4316 27.282 14.8636 27.8071C15.4364 27.998 16.0093 28.1412 16.5821 28.1412C17.489 28.1412 18.396 27.8548 19.2075 27.3297C19.2552 27.3297 19.2552 27.282 19.303 27.282L21.1646 25.6113L23.074 31.5781ZM28.0862 17.3531C28.0384 17.3531 28.0384 17.4009 27.9907 17.4009L21.7852 22.9858L18.1573 11.9113V11.8636C17.5368 10.3361 16.2002 9.28592 14.5772 8.95178C12.9542 8.66537 11.3312 9.19045 10.2333 10.3838L9.46958 11.1953L7.79886 5.61034C7.36924 3.98735 8.133 2.69851 9.03996 2.03022C9.56505 1.64834 10.2333 1.36194 10.9971 1.36194C11.5699 1.36194 12.1905 1.50514 12.811 1.93475L28.0384 11.7204C28.9931 12.341 29.5182 13.3911 29.5182 14.489C29.566 15.6824 29.0409 16.7326 28.0862 17.3531Z" fill="#0a58ca"/>
</svg>
