<svg xmlns="http://www.w3.org/2000/svg" height="800" width="1200" viewBox="-6.193095 -5.002375 53.67349 30.01425"><path d="M17.9395 7.4921h-.6233v1.4041h-1.0288V4.7931h1.4464c.581 0 1.047.0118 1.4284.2843.375.2662.5324.6718.5324 1.0471 0 1.0046-.823 1.3676-1.7551 1.3676m-.121-1.8943h-.5023v1.0833h.5024c.4174 0 .8775-.0544.8775-.5508 0-.5082-.5085-.5325-.8775-.5325m4.0673 3.2984l-.0244-.2966c-.127.1392-.4356.3692-.9199.3692-.5264 0-1.0288-.2844-1.0288-.9198 0-.2664.0908-.4599.236-.6051.3208-.3208.7264-.3816 1.1379-.3816h.5265v-.0785c0-.3087-.236-.4055-.5327-.4055-.4236 0-.7684.2784-.823.3269l-.4113-.5689c.0482-.0425.4477-.4842 1.2888-.4842.484 0 .8233.1088 1.059.3448.321.321.3451.7083.3451 1.2226v1.4767zm-.0727-1.2528h-.4478c-.2482 0-.5386.0605-.5386.3631 0 .1999.151.3207.3751.3207.1997 0 .3329-.0546.4418-.145.1151-.0969.1695-.2483.1695-.4238v-.115m3.2444 1.3861c-.1817.472-.5025 1.077-1.3679 1.077-.375 0-.593-.121-.6777-.1937l.2843-.6595c.0729.0362.206.0726.3087.0726.3268 0 .4237-.1756.5449-.4722L22.9033 5.967h1.0285l.6901 1.8097.6838-1.8097h.9864l-1.2345 3.0625m3.3046-1.5374h-.6232v1.4041h-1.0287V4.7931h1.4463c.581 0 1.047.0118 1.4284.2843.375.2662.5324.6718.5324 1.0471 0 1.0046-.823 1.3676-1.7552 1.3676m-.1208-1.8943h-.5024v1.0833h.5024c.4174 0 .8775-.0544.8775-.5508 0-.5082-.5082-.5325-.8775-.5325m3.7283 3.3952c-1.192 0-1.6702-.8414-1.6702-1.5735 0-.7323.4782-1.5674 1.6702-1.5674 1.1922 0 1.6704.835 1.6704 1.5674 0 .7321-.4782 1.5736-1.6704 1.5736m0-2.3785c-.466 0-.6777.3811-.6777.8049 0 .4418.2239.8108.6777.8108.4539 0 .6777-.369.6777-.8108 0-.442-.2238-.805-.6777-.805m2.4676-.9015c-.3147 0-.5325-.224-.5325-.5083 0-.2847.2178-.5085.5325-.5085.3148 0 .5326.2238.5326.5085 0 .2843-.2178.5082-.5326.5082m-.4842.2543h.9684v2.9291h-.9684V5.9672m3.3821 2.929V7.232c0-.1996-.006-.3873-.1634-.4903-.0663-.0483-.1693-.0846-.3026-.0846-.139 0-.2904.0484-.3934.1513-.1513.1513-.1513.3992-.1513.6414v1.4465h-.9684V5.967h.908l.012.3147c.03-.03.3634-.4295.9624-.4295.3083 0 .5627.0787.7927.3087.2424.2421.2724.5688.2724.9015v1.834h-.9684m3.0568.0906c-.8654 0-1.2527-.3632-1.2527-1.1318V6.7296h-.6174v-.7624h.6174v-.38l.9684-.5466v.9266h1.0103v.7624h-1.0103v.8172c0 .3205.012.6412.5143.6412.1877 0 .381-.0725.4113-.0846l.254.684c-.036.024-.363.1996-.8953.1996M5.8622 7.8107h1.3013c.5373 0 .9742-.4371.9742-.9744 0-.5372-.437-.974-.9742-.974H5.8622zm0 12.1988L0 17.2138V0h7.1635C10.9329 0 14 3.0668 14 6.8363c0 3.7698-3.0672 6.8367-6.8366 6.8367H5.8622v6.3365" fill="#2a2652"/><path d="M3.9078 9.7648h3.2557c1.6146 0 2.9282-1.3139 2.9282-2.9284 0-1.6146-1.3136-2.9282-2.9282-2.9282H3.9078zm0 6.9169l-1.9539-.9344V1.954h5.2096c2.692 0 4.8822 2.1902 4.8822 4.8824 0 2.6922-2.1903 4.8823-4.8822 4.8823H3.9078v4.963" fill="#efd40a"/><path d="M7.1636 5.8636H5.8623v1.9483h1.3013c.5374 0 .974-.437.974-.974 0-.5375-.4366-.9743-.974-.9743" fill="#efd40a"/></svg>